<mxfile host="app.diagrams.net" modified="2024-02-01T03:18:02.131Z" agent="Mozilla/5.0 (X11; CrOS x86_64 14541.0.0) AppleWebKit/537.36 (KHTML, like Gecko) Chrome/120.0.0.0 Safari/537.36" etag="_bS0A8sI0v39I0dzvzz7" version="23.1.0" type="github">
  <diagram name="Page-1" id="5HpIvSp0xX69d-_RO2aN">
    <mxGraphModel dx="1031" dy="544" grid="1" gridSize="10" guides="1" tooltips="1" connect="1" arrows="1" fold="1" page="1" pageScale="1" pageWidth="827" pageHeight="1169" math="0" shadow="0">
      <root>
        <mxCell id="0" />
        <mxCell id="1" parent="0" />
        <mxCell id="W65dC9zplmv23g_s0wsy-12" value="kategori_buku" style="swimlane;fontStyle=0;childLayout=stackLayout;horizontal=1;startSize=30;horizontalStack=0;resizeParent=1;resizeParentMax=0;resizeLast=0;collapsible=1;marginBottom=0;whiteSpace=wrap;html=1;" vertex="1" parent="1">
          <mxGeometry x="50" y="80" width="130" height="110" as="geometry" />
        </mxCell>
        <mxCell id="W65dC9zplmv23g_s0wsy-13" value="id:int" style="text;strokeColor=none;fillColor=none;align=left;verticalAlign=middle;spacingLeft=4;spacingRight=4;overflow=hidden;points=[[0,0.5],[1,0.5]];portConstraint=eastwest;rotatable=0;whiteSpace=wrap;html=1;" vertex="1" parent="W65dC9zplmv23g_s0wsy-12">
          <mxGeometry y="30" width="130" height="30" as="geometry" />
        </mxCell>
        <mxCell id="W65dC9zplmv23g_s0wsy-14" value="nama:vachar" style="text;strokeColor=none;fillColor=none;align=left;verticalAlign=middle;spacingLeft=4;spacingRight=4;overflow=hidden;points=[[0,0.5],[1,0.5]];portConstraint=eastwest;rotatable=0;whiteSpace=wrap;html=1;" vertex="1" parent="W65dC9zplmv23g_s0wsy-12">
          <mxGeometry y="60" width="130" height="30" as="geometry" />
        </mxCell>
        <mxCell id="W65dC9zplmv23g_s0wsy-15" value="keterangan:vachar" style="text;strokeColor=none;fillColor=none;align=left;verticalAlign=middle;spacingLeft=4;spacingRight=4;overflow=hidden;points=[[0,0.5],[1,0.5]];portConstraint=eastwest;rotatable=0;whiteSpace=wrap;html=1;" vertex="1" parent="W65dC9zplmv23g_s0wsy-12">
          <mxGeometry y="90" width="130" height="20" as="geometry" />
        </mxCell>
        <mxCell id="W65dC9zplmv23g_s0wsy-39" value="Vertical Container" style="swimlane;whiteSpace=wrap;html=1;" vertex="1" parent="1">
          <mxGeometry x="308" y="30" width="201" height="370" as="geometry" />
        </mxCell>
        <mxCell id="W65dC9zplmv23g_s0wsy-41" value="id:int" style="text;html=1;strokeColor=none;fillColor=none;align=center;verticalAlign=middle;whiteSpace=wrap;rounded=0;" vertex="1" parent="W65dC9zplmv23g_s0wsy-39">
          <mxGeometry y="30" width="60" height="30" as="geometry" />
        </mxCell>
        <mxCell id="W65dC9zplmv23g_s0wsy-42" value="created_at:datetime" style="text;html=1;strokeColor=none;fillColor=none;align=center;verticalAlign=middle;whiteSpace=wrap;rounded=0;" vertex="1" parent="W65dC9zplmv23g_s0wsy-39">
          <mxGeometry x="29" y="50" width="60" height="30" as="geometry" />
        </mxCell>
        <mxCell id="W65dC9zplmv23g_s0wsy-43" value="judul:char" style="text;html=1;strokeColor=none;fillColor=none;align=center;verticalAlign=middle;whiteSpace=wrap;rounded=0;" vertex="1" parent="W65dC9zplmv23g_s0wsy-39">
          <mxGeometry x="7" y="70" width="60" height="30" as="geometry" />
        </mxCell>
        <mxCell id="W65dC9zplmv23g_s0wsy-45" value="penulis_char" style="text;html=1;strokeColor=none;fillColor=none;align=center;verticalAlign=middle;whiteSpace=wrap;rounded=0;" vertex="1" parent="W65dC9zplmv23g_s0wsy-39">
          <mxGeometry x="13" y="100" width="60" height="30" as="geometry" />
        </mxCell>
        <mxCell id="W65dC9zplmv23g_s0wsy-46" value="deskripsi_char" style="text;html=1;strokeColor=none;fillColor=none;align=center;verticalAlign=middle;whiteSpace=wrap;rounded=0;" vertex="1" parent="W65dC9zplmv23g_s0wsy-39">
          <mxGeometry x="18" y="130" width="60" height="30" as="geometry" />
        </mxCell>
        <mxCell id="W65dC9zplmv23g_s0wsy-47" value="tahun_terbit:int" style="text;html=1;strokeColor=none;fillColor=none;align=center;verticalAlign=middle;whiteSpace=wrap;rounded=0;" vertex="1" parent="W65dC9zplmv23g_s0wsy-39">
          <mxGeometry x="21" y="160" width="60" height="30" as="geometry" />
        </mxCell>
        <mxCell id="W65dC9zplmv23g_s0wsy-48" value="penerbit.char" style="text;html=1;strokeColor=none;fillColor=none;align=center;verticalAlign=middle;whiteSpace=wrap;rounded=0;" vertex="1" parent="W65dC9zplmv23g_s0wsy-39">
          <mxGeometry x="20" y="191" width="60" height="30" as="geometry" />
        </mxCell>
        <mxCell id="W65dC9zplmv23g_s0wsy-49" value="kategori:int (fk)" style="text;html=1;strokeColor=none;fillColor=none;align=center;verticalAlign=middle;whiteSpace=wrap;rounded=0;" vertex="1" parent="W65dC9zplmv23g_s0wsy-39">
          <mxGeometry x="1" y="221" width="106" height="30" as="geometry" />
        </mxCell>
        <mxCell id="W65dC9zplmv23g_s0wsy-50" value="rak:int" style="text;html=1;strokeColor=none;fillColor=none;align=center;verticalAlign=middle;whiteSpace=wrap;rounded=0;" vertex="1" parent="W65dC9zplmv23g_s0wsy-39">
          <mxGeometry x="8" y="246" width="60" height="30" as="geometry" />
        </mxCell>
        <mxCell id="W65dC9zplmv23g_s0wsy-53" value="tampilan _buku()" style="text;html=1;strokeColor=none;fillColor=none;align=center;verticalAlign=middle;whiteSpace=wrap;rounded=0;" vertex="1" parent="W65dC9zplmv23g_s0wsy-39">
          <mxGeometry x="-6" y="290" width="120" height="30" as="geometry" />
        </mxCell>
        <mxCell id="W65dC9zplmv23g_s0wsy-54" value="cari_buku" style="text;html=1;strokeColor=none;fillColor=none;align=center;verticalAlign=middle;whiteSpace=wrap;rounded=0;" vertex="1" parent="W65dC9zplmv23g_s0wsy-39">
          <mxGeometry x="8" y="320" width="60" height="30" as="geometry" />
        </mxCell>
        <mxCell id="W65dC9zplmv23g_s0wsy-52" value="" style="endArrow=none;html=1;rounded=0;" edge="1" parent="W65dC9zplmv23g_s0wsy-39">
          <mxGeometry width="50" height="50" relative="1" as="geometry">
            <mxPoint x="2" y="278" as="sourcePoint" />
            <mxPoint x="202" y="280" as="targetPoint" />
          </mxGeometry>
        </mxCell>
        <mxCell id="W65dC9zplmv23g_s0wsy-55" value="" style="edgeStyle=entityRelationEdgeStyle;fontSize=12;html=1;endArrow=ERzeroToOne;endFill=1;rounded=0;" edge="1" parent="1">
          <mxGeometry width="100" height="100" relative="1" as="geometry">
            <mxPoint x="190" y="160" as="sourcePoint" />
            <mxPoint x="300" y="200" as="targetPoint" />
            <Array as="points">
              <mxPoint x="200" y="160" />
              <mxPoint x="30" y="80" />
              <mxPoint x="310" y="200" />
              <mxPoint x="240" y="210" />
            </Array>
          </mxGeometry>
        </mxCell>
        <mxCell id="W65dC9zplmv23g_s0wsy-56" value="tampilkan()" style="whiteSpace=wrap;html=1;align=center;" vertex="1" parent="1">
          <mxGeometry x="50" y="190" width="130" height="40" as="geometry" />
        </mxCell>
        <mxCell id="W65dC9zplmv23g_s0wsy-70" value="keanggotaan" style="swimlane;fontStyle=0;childLayout=stackLayout;horizontal=1;startSize=26;horizontalStack=0;resizeParent=1;resizeParentMax=0;resizeLast=0;collapsible=1;marginBottom=0;align=center;fontSize=14;" vertex="1" parent="1">
          <mxGeometry x="50" y="390" width="160" height="116" as="geometry" />
        </mxCell>
        <mxCell id="W65dC9zplmv23g_s0wsy-71" value="id:int" style="text;strokeColor=none;fillColor=none;spacingLeft=4;spacingRight=4;overflow=hidden;rotatable=0;points=[[0,0.5],[1,0.5]];portConstraint=eastwest;fontSize=12;whiteSpace=wrap;html=1;" vertex="1" parent="W65dC9zplmv23g_s0wsy-70">
          <mxGeometry y="26" width="160" height="30" as="geometry" />
        </mxCell>
        <mxCell id="W65dC9zplmv23g_s0wsy-72" value="nama:vachar" style="text;strokeColor=none;fillColor=none;spacingLeft=4;spacingRight=4;overflow=hidden;rotatable=0;points=[[0,0.5],[1,0.5]];portConstraint=eastwest;fontSize=12;whiteSpace=wrap;html=1;" vertex="1" parent="W65dC9zplmv23g_s0wsy-70">
          <mxGeometry y="56" width="160" height="30" as="geometry" />
        </mxCell>
        <mxCell id="W65dC9zplmv23g_s0wsy-73" value="keterangan:char" style="text;strokeColor=none;fillColor=none;spacingLeft=4;spacingRight=4;overflow=hidden;rotatable=0;points=[[0,0.5],[1,0.5]];portConstraint=eastwest;fontSize=12;whiteSpace=wrap;html=1;" vertex="1" parent="W65dC9zplmv23g_s0wsy-70">
          <mxGeometry y="86" width="160" height="30" as="geometry" />
        </mxCell>
        <mxCell id="W65dC9zplmv23g_s0wsy-75" value="tampilkan()" style="whiteSpace=wrap;html=1;align=center;" vertex="1" parent="1">
          <mxGeometry x="50" y="506" width="160" height="40" as="geometry" />
        </mxCell>
        <mxCell id="W65dC9zplmv23g_s0wsy-82" value="pengunjung" style="swimlane;whiteSpace=wrap;html=1;" vertex="1" parent="1">
          <mxGeometry x="300" y="435" width="200" height="365" as="geometry" />
        </mxCell>
        <mxCell id="W65dC9zplmv23g_s0wsy-83" value="id:int" style="text;html=1;strokeColor=none;fillColor=none;align=center;verticalAlign=middle;whiteSpace=wrap;rounded=0;" vertex="1" parent="W65dC9zplmv23g_s0wsy-82">
          <mxGeometry x="-8" y="30" width="60" height="30" as="geometry" />
        </mxCell>
        <mxCell id="W65dC9zplmv23g_s0wsy-93" value="keperluan:int(fk)" style="text;html=1;strokeColor=none;fillColor=none;align=center;verticalAlign=middle;whiteSpace=wrap;rounded=0;" vertex="1" parent="W65dC9zplmv23g_s0wsy-82">
          <mxGeometry x="10" y="256" width="81" height="34" as="geometry" />
        </mxCell>
        <mxCell id="W65dC9zplmv23g_s0wsy-84" value="tanggal:date" style="text;html=1;strokeColor=none;fillColor=none;align=center;verticalAlign=middle;whiteSpace=wrap;rounded=0;" vertex="1" parent="1">
          <mxGeometry x="312" y="489" width="60" height="30" as="geometry" />
        </mxCell>
        <mxCell id="W65dC9zplmv23g_s0wsy-85" value="waktu:time" style="text;html=1;strokeColor=none;fillColor=none;align=center;verticalAlign=middle;whiteSpace=wrap;rounded=0;" vertex="1" parent="1">
          <mxGeometry x="311" y="524" width="60" height="30" as="geometry" />
        </mxCell>
        <mxCell id="W65dC9zplmv23g_s0wsy-86" value="nama:vachar" style="text;html=1;strokeColor=none;fillColor=none;align=center;verticalAlign=middle;whiteSpace=wrap;rounded=0;" vertex="1" parent="1">
          <mxGeometry x="313" y="558" width="60" height="30" as="geometry" />
        </mxCell>
        <mxCell id="W65dC9zplmv23g_s0wsy-87" value="keangggotan:int (fk)" style="text;html=1;strokeColor=none;fillColor=none;align=center;verticalAlign=middle;whiteSpace=wrap;rounded=0;" vertex="1" parent="1">
          <mxGeometry x="301" y="591" width="130" height="30" as="geometry" />
        </mxCell>
        <mxCell id="W65dC9zplmv23g_s0wsy-89" value="tingkat:int" style="text;html=1;strokeColor=none;fillColor=none;align=center;verticalAlign=middle;whiteSpace=wrap;rounded=0;" vertex="1" parent="1">
          <mxGeometry x="312" y="620" width="60" height="30" as="geometry" />
        </mxCell>
        <mxCell id="W65dC9zplmv23g_s0wsy-90" value="jurusan:char" style="text;html=1;strokeColor=none;fillColor=none;align=center;verticalAlign=middle;whiteSpace=wrap;rounded=0;" vertex="1" parent="1">
          <mxGeometry x="312" y="645" width="60" height="30" as="geometry" />
        </mxCell>
        <mxCell id="W65dC9zplmv23g_s0wsy-92" value="kelas:char" style="text;html=1;strokeColor=none;fillColor=none;align=center;verticalAlign=middle;whiteSpace=wrap;rounded=0;" vertex="1" parent="1">
          <mxGeometry x="311" y="669" width="60" height="30" as="geometry" />
        </mxCell>
        <mxCell id="W65dC9zplmv23g_s0wsy-94" value="" style="endArrow=none;html=1;rounded=0;" edge="1" parent="1">
          <mxGeometry width="50" height="50" relative="1" as="geometry">
            <mxPoint x="310" y="731" as="sourcePoint" />
            <mxPoint x="500" y="731" as="targetPoint" />
          </mxGeometry>
        </mxCell>
        <mxCell id="W65dC9zplmv23g_s0wsy-95" value="tampilkan()" style="text;html=1;strokeColor=none;fillColor=none;align=center;verticalAlign=middle;whiteSpace=wrap;rounded=0;" vertex="1" parent="1">
          <mxGeometry x="309" y="736" width="60" height="30" as="geometry" />
        </mxCell>
        <mxCell id="W65dC9zplmv23g_s0wsy-96" value="tambah()" style="text;html=1;strokeColor=none;fillColor=none;align=center;verticalAlign=middle;whiteSpace=wrap;rounded=0;" vertex="1" parent="1">
          <mxGeometry x="306" y="756" width="60" height="30" as="geometry" />
        </mxCell>
        <mxCell id="W65dC9zplmv23g_s0wsy-97" value="keperluan" style="swimlane;fontStyle=0;childLayout=stackLayout;horizontal=1;startSize=30;horizontalStack=0;resizeParent=1;resizeParentMax=0;resizeLast=0;collapsible=1;marginBottom=0;whiteSpace=wrap;html=1;" vertex="1" parent="1">
          <mxGeometry x="30" y="620" width="190" height="90" as="geometry" />
        </mxCell>
        <mxCell id="W65dC9zplmv23g_s0wsy-98" value="id:int" style="text;strokeColor=none;fillColor=none;align=left;verticalAlign=middle;spacingLeft=4;spacingRight=4;overflow=hidden;points=[[0,0.5],[1,0.5]];portConstraint=eastwest;rotatable=0;whiteSpace=wrap;html=1;" vertex="1" parent="W65dC9zplmv23g_s0wsy-97">
          <mxGeometry y="30" width="190" height="30" as="geometry" />
        </mxCell>
        <mxCell id="W65dC9zplmv23g_s0wsy-99" value="nama:vachar" style="text;strokeColor=none;fillColor=none;align=left;verticalAlign=middle;spacingLeft=4;spacingRight=4;overflow=hidden;points=[[0,0.5],[1,0.5]];portConstraint=eastwest;rotatable=0;whiteSpace=wrap;html=1;" vertex="1" parent="W65dC9zplmv23g_s0wsy-97">
          <mxGeometry y="60" width="190" height="30" as="geometry" />
        </mxCell>
        <mxCell id="W65dC9zplmv23g_s0wsy-109" value="" style="edgeStyle=entityRelationEdgeStyle;fontSize=12;html=1;endArrow=ERzeroToMany;endFill=1;rounded=0;" edge="1" parent="1">
          <mxGeometry width="100" height="100" relative="1" as="geometry">
            <mxPoint x="210" y="493" as="sourcePoint" />
            <mxPoint x="300" y="460" as="targetPoint" />
            <Array as="points">
              <mxPoint x="300" y="480" />
            </Array>
          </mxGeometry>
        </mxCell>
        <mxCell id="W65dC9zplmv23g_s0wsy-110" value="" style="edgeStyle=entityRelationEdgeStyle;fontSize=12;html=1;endArrow=ERoneToMany;startArrow=ERzeroToMany;rounded=0;" edge="1" parent="1">
          <mxGeometry width="100" height="100" relative="1" as="geometry">
            <mxPoint x="223" y="687" as="sourcePoint" />
            <mxPoint x="293" y="610" as="targetPoint" />
          </mxGeometry>
        </mxCell>
        <mxCell id="W65dC9zplmv23g_s0wsy-111" value="tampilkan()" style="whiteSpace=wrap;html=1;align=center;" vertex="1" parent="1">
          <mxGeometry x="30" y="710" width="190" height="40" as="geometry" />
        </mxCell>
      </root>
    </mxGraphModel>
  </diagram>
</mxfile>
